<svg xmlns="http://www.w3.org/2000/svg" width="32" height="32" viewBox="0 0 32 32">
    <g fill="none">
        <path fill="#31456A" d="M31.36 15.725c0 4.521-1.903 8.597-4.95 11.465-2.804 2.642-6.579.302-10.73.302-4.151 0-7.926 2.34-10.73-.302C1.902 24.322 0 20.246 0 15.725 0 7.04 7.02 0 15.68 0s15.68 7.04 15.68 15.725z"/>
        <g>
            <path fill="#DA8F35" d="M23.42 27.113c-.626.585-1.3 1.12-2.015 1.599-3.5 0-5.51-.04-8.749-.04-.954 0-1.888-.085-2.795-.248-2.173-.388-4.19 1.467-5.955.287-.715-.478-1.388-1.013-2.014-1.598 1.253-5.985-.306-10.602-.636-13.924v-.005l4.5-.5 6.9-.765 11.4 1.264c-.328 3.323-1.89 7.942-.636 13.93z" transform="translate(3.136)"/>
            <path fill="#DA8F35" d="M24.18 11.49c0 .575-.042 1.141-.124 1.693-.821 5.543-5.613 9.796-11.4 9.796-.51 0-1.013-.033-1.506-.097-5.094-.662-9.143-4.642-9.894-9.693v-.006c-.083-.552-.125-1.118-.125-1.693C1.131 5.144 6.291 0 12.655 0 19.021 0 24.18 5.144 24.18 11.49z" transform="translate(3.136)"/>
            <path fill="#C47528" d="M11.15 22.882l1.679 3.173-2.968 5.058c-3.053-.546-5.8-1.97-7.969-4 1.253-5.985-.306-10.602-.636-13.924v-.006c-.083-.552-.125-1.118-.125-1.693C1.131 5.144 6.291 0 12.655 0c-1.787 0-2.433 2.909.215 3.772L5.35 11.92l.405.765 5.394 10.198z" transform="translate(3.136)"/>
            <path fill="#009BBF" fill-opacity=".786" d="M18.998 30.033c-.654.288-1.332.533-2.03.73-1.37.389-2.816.597-4.312.597-1.495 0-2.942-.208-4.313-.597-.445-.126-.882-.272-1.31-.436l-.08-.03c-.215-.083-.428-.172-.64-.264-.843-.371-1.648-.814-2.407-1.322.638-.88 1.46-1.619 2.408-2.163.627-.36 1.308-.634 2.03-.806.11-.027.223-.051.336-.073.213-.041.43-.073.65-.096.062-.007.125-.013.189-.018.208-.017.418-.025.63-.025h5.013c.278 0 .551.014.82.042.22.023.436.056.65.096.085.017.17.034.254.053.028.008.056.013.083.02.721.173 1.402.447 2.03.807.947.545 1.768 1.283 2.406 2.164-.758.507-1.563.95-2.407 1.32z" transform="translate(3.136)"/>
            <path fill="#009BBF" d="M10.15 25.53c-1.804 0-3.027 2.598-3.117 4.797l-.08-.03c-.215-.083-.428-.172-.64-.264-.843-.371-1.648-.814-2.407-1.322.638-.88 1.46-1.619 2.408-2.163.627-.36 1.308-.634 2.03-.806.11-.027.223-.051.336-.073.213-.041.43-.073.65-.096.062-.007.125-.013.189-.018.208-.017.418-.025.63-.025z" transform="translate(3.136)"/>
            <path fill="#FFDDCE" d="M16.632 25.668v.266c0 1.748-1.126 3.27-2.801 3.786-.38.117-.775.177-1.176.177-2.192 0-3.975-1.778-3.975-3.963v-.265c.213-.041.43-.073.65-.096.062-.007.125-.013.189-.018.208-.017.418-.025.63-.025h5.013c.278 0 .551.014.82.042.22.023.436.056.65.096z" transform="translate(3.136)"/>
            <path fill="#FFCBBE" d="M15.403 22.573v3.36c0 1.231-.814 2.271-1.935 2.616-.257.08-.53.123-.813.123-1.517 0-2.746-1.226-2.746-2.738v-3.361h5.494z" transform="translate(3.136)"/>
            <path fill="#FFDDCE" d="M15.403 25.72v.214c0 1.23-.814 2.27-1.935 2.615-1.011-.31-1.772-1.186-1.912-2.259.183.012.368.017.553.017.52 0 1.03-.041 1.526-.122.611-.098 1.202-.255 1.768-.464z" transform="translate(3.136)"/>
            <g transform="translate(3.136) translate(0 14.455)">
                <path fill="#FFDDCE" d="M5.071 2.582c0 1.255-.92 2.296-2.124 2.49-.132.02-.267.032-.406.032-1.397 0-2.53-1.129-2.53-2.522C.012 1.189 1.145.06 2.542.06c.139 0 .274.01.406.032C4.15.285 5.07 1.326 5.07 2.582z"/>
                <path fill="#FFCBBE" d="M5.071 2.582c0 1.255-.92 2.296-2.124 2.49-.22-.794-.336-1.629-.336-2.49 0-.862.117-1.697.336-2.49C4.15.285 5.07 1.326 5.07 2.582z"/>
                <circle cx="2.541" cy="2.582" r="1" fill="#FFCBBE"/>
                <path fill="#FFDDCE" d="M20.24 2.582c0 1.255.92 2.296 2.125 2.49.131.02.267.032.405.032 1.397 0 2.53-1.129 2.53-2.522C25.3 1.189 24.167.06 22.77.06c-.138 0-.274.01-.405.032-1.205.193-2.125 1.234-2.125 2.49z"/>
                <g fill="#FFCBBE" transform="translate(20.213 .061)">
                    <path d="M.028 2.52c0 1.256.92 2.297 2.124 2.49.219-.793.336-1.628.336-2.49 0-.861-.117-1.696-.336-2.489C.947.224.028 1.265.028 2.521z"/>
                    <circle cx="2.557" cy="2.521" r="1"/>
                </g>
            </g>
            <path fill="#FFDDCE" d="M22.16 12.23v3.481c0 4.716-3.455 8.627-7.98 9.354-.482.079-.978.12-1.483.122-5.25.022-9.546-4.327-9.546-9.56v-3.398c0-5.063 4.117-9.168 9.196-9.168h.617c2.184 0 4.19.76 5.768 2.027 2.09 1.68 3.428 4.255 3.428 7.141z" transform="translate(3.136)"/>
            <path fill="#FFCBBE" d="M14.33 25.04l-.149.025c-.496.08-1.006.122-1.525.122-5.25 0-9.505-4.242-9.505-9.476v-3.547l3.352-6.1v9.647c0 4.664 3.377 8.54 7.827 9.329z" transform="translate(3.136)"/>
            <path fill="#C47528" d="M16.927 5.865s-2.452 6.014-13.98 8.682L3.15 9.94 5.12 5.918l10.283-2.53 1.524 2.477z" transform="translate(3.136)"/>
            <g transform="translate(3.136) translate(7.25 12.985)">
                <path fill="#FFCBBE" d="M10.812 1.98c0-1.09-.886-1.975-1.98-1.975C7.736.005 6.85.89 6.85 1.98h3.961z"/>
                <ellipse cx="8.832" cy="2.821" fill="#353A3D" rx="1.353" ry="1.349"/>
                <circle cx="9.395" cy="2.583" r="1" fill="#FFF"/>
                <path fill="#FFCBBE" d="M3.962 1.98C3.962.89 3.075.005 1.98.005S0 .89 0 1.98h3.962z"/>
                <ellipse cx="1.981" cy="2.821" fill="#353A3D" rx="1.353" ry="1.349"/>
                <path fill="#202326" d="M2.286 4.135c-.098.023-.2.035-.305.035-.748 0-1.353-.604-1.353-1.35 0-.744.605-1.348 1.353-1.348.105 0 .207.012.305.035-.601.138-1.048.674-1.048 1.314s.447 1.176 1.048 1.314zM9.137 4.135c-.099.023-.2.035-.306.035-.747 0-1.352-.604-1.352-1.35 0-.744.605-1.348 1.352-1.348.105 0 .207.012.306.035-.601.138-1.048.674-1.048 1.314s.447 1.176 1.048 1.314z"/>
                <circle cx="2.545" cy="2.583" r="1" fill="#FFF"/>
            </g>
            <path fill="#DA8F35" d="M22.16 11.31l.183 1.81-.183 1.303c-4.015-2.547-5.233-8.558-5.233-8.558l1.805-1.696c2.09 1.681 3.428 4.255 3.428 7.141z" transform="translate(3.136)"/>
            <path fill="#407093" d="M22.281 11.47c0 .43-.031.855-.093 1.269-.65-4.415-4.67-7.814-9.532-7.814-.527 0-1.043.038-1.545.117-1.231.186-2.384.593-3.41 1.175C5.265 7.6 3.53 9.968 3.121 12.736c-.06-.414-.092-.836-.092-1.266 0-3.303 1.872-6.195 4.67-7.782 1.028-.583 2.18-.99 3.411-1.176.502-.079 1.018-.117 1.545-.117 5.316 0 9.625 4.063 9.625 9.075z" transform="translate(3.136)"/>
            <path fill="#365E7D" d="M7.7 3.688v2.53c-2.434 1.381-4.169 3.75-4.578 6.518-.06-.414-.092-.836-.092-1.266 0-3.303 1.872-6.195 4.67-7.782z" transform="translate(3.136)"/>
            <path fill="#FFCBBE" d="M13.734 17.56h-2.156c-.257 0-.466-.208-.466-.464s.209-.463.466-.463h2.156c.257 0 .465.207.465.463s-.208.464-.465.464z" transform="translate(3.136)"/>
            <g>
                <path fill="#DDEAFB" d="M16.836 5.039c-.11 0-.218-.06-.273-.165-.078-.15-.02-.334.13-.413.025-.013 2.49-1.333 3.039-4.175.032-.166.193-.275.36-.243.166.032.275.193.243.359-.606 3.14-3.245 4.544-3.357 4.602-.046.024-.094.035-.142.035z" transform="translate(3.136) translate(2.457 13.842)"/>
                <path fill="#CBE2FF" d="M3.56 5.039c-.048 0-.096-.011-.142-.035C3.306 4.946.667 3.542.061.402.03.236.138.075.305.043.472.011.633.12.665.286c.548 2.842 3.013 4.162 3.038 4.175.15.079.208.264.13.414-.055.104-.162.164-.273.164z" transform="translate(3.136) translate(2.457 13.842)"/>
            </g>
            <path fill="#DDEAFB" d="M20.016 21.916c-.212 1.245-1.26 2.182-2.521 2.292-3.226.283-6.452.283-9.678 0-1.262-.11-2.31-1.047-2.521-2.292-.188-1.099-.432-2.595-.065-3.82.12-.4.465-.69.88-.734 1.574-.167 3.275-.27 5.004-.308 1.024-.022 2.058-.022 3.081 0 1.73.038 3.43.14 5.005.308.415.044.76.334.879.733.367 1.226.123 2.722-.064 3.821z" transform="translate(3.136)"/>
            <g fill="#CBE2FF">
                <path d="M5.37 7.348c-.864-.035-1.728-.09-2.591-.166C1.517 7.07.469 6.134.258 4.889.07 3.79-.174 2.294.193 1.068c.12-.399.465-.69.88-.733.939-.1 1.923-.177 2.931-.23-.152.142-.267.325-.33.533-.426 1.426-.142 3.166.076 4.445.167.983.783 1.801 1.62 2.265z" transform="translate(3.136) translate(5.038 17.027)"/>
                <g>
                    <path d="M10.68.794h-.02C7.376.573 4.05.573.766.793.6.803.452.676.44.507.43.34.557.194.726.182c3.31-.22 6.665-.22 9.974 0 .17.012.298.158.286.326-.01.162-.146.286-.306.286zM11.11 2.206H.316c-.17 0-.307-.137-.307-.307 0-.169.138-.306.307-.306H11.11c.17 0 .307.137.307.306 0 .17-.137.307-.307.307zM5.713 3.782c-1.666 0-3.332-.055-4.987-.165C.557 3.605.43 3.459.44 3.29c.012-.17.159-.297.327-.285 3.282.218 6.61.218 9.892 0 .169-.012.316.116.327.285.012.168-.116.314-.286.326-1.654.11-3.32.165-4.987.165z" transform="translate(3.136) translate(5.038 17.027) translate(1.905 2.083)"/>
                </g>
                <path d="M9.16.069c0 .128-.051.243-.136.327-.084.084-.2.136-.328.136H6.54c-.257 0-.465-.207-.465-.463 0-.014 0-.03.002-.043 1.024-.022 2.058-.022 3.081 0 .002.014.003.029.003.043z" transform="translate(3.136) translate(5.038 17.027)"/>
            </g>
        </g>
    </g>
</svg>
