<svg xmlns="http://www.w3.org/2000/svg" width="19" height="19" viewBox="0 0 19 19">
    <g fill-rule="evenodd" stroke="#000" stroke-width=".3">
        <path d="M16 8.69c0 4.18-3.42 7.6-7.6 7.6S.8 12.87.8 8.69c0-4.179 3.42-7.6 7.6-7.6 2.921 0 5.527 1.631 6.76 4.175l.72-.35C14.513 2.098 11.627.29 8.4.29 3.78.29 0 4.07 0 8.69c0 4.621 3.78 8.4 8.4 8.4 4.62 0 8.4-3.779 8.4-8.4H16z" transform="translate(1.1 1.098)"/>
        <path d="M10.456 4.081L10.351 4.874 15.943 5.619 16.69 0.107 15.897 0 15.257 4.721z" transform="translate(1.1 1.098)"/>
    </g>
</svg>
