<svg xmlns="http://www.w3.org/2000/svg" width="38" height="35" viewBox="0 0 38 35">
    <g fill="none" fill-rule="evenodd" transform="translate(0 -4)">
        <circle cx="11.025" cy="15.75" r="11.025" fill="#BAE8F5"/>
        <path fill="#009ABF" d="M34.262 7.948c4.306 4.305 4.306 11.286 0 15.591L18.893 38.91l-7.795-7.797c-4.306-4.305-4.306-11.286 0-15.591l7.573-7.573c4.305-4.306 11.286-4.306 15.591 0z" opacity=".6"/>
        <path fill="#31456A" d="M18.75 7.878c2.04 2 3.306 4.788 3.306 7.872 0 6.089-4.936 11.025-11.025 11.025-.934 0-1.84-.116-2.707-.335-1.103-3.747-.176-7.963 2.78-10.92l7.573-7.572z"/>
    </g>
</svg>
