<svg xmlns="http://www.w3.org/2000/svg" width="100" height="141" viewBox="0 0 100 141">
    <g fill="none" fill-rule="evenodd">
        <path fill="#223049" d="M51.601 108.864c13.302.549 14.642-9.965 14.585-14.647-4.205-1.33-8.927-2.092-14.23-2.092-5.155 0-9.823.723-14.052 1.985-.321 4.383.448 14.208 13.697 14.754"/>
        <path fill="#31456A" d="M66.186 94.217c.057 4.682-1.283 15.196-14.585 14.647-13.249-.546-14.018-10.371-13.697-14.754C7.551 103.168 0 140.2 0 140.2h99.614s-4.204-36.74-33.428-45.983"/>
        <path fill="#2F323A" d="M24.214 26.068s-9.693 9.96 0 19.995c9.692 10.034 56.921-.497 56.921-.497s7.032-13.796-4.276-23.585c-11.308-9.787-37.631-6.746-37.916-6.746-.285 0-14.729 10.833-14.729 10.833"/>
        <path fill="#CD7173" d="M29.19 49.73c0 4.32-3.502 7.822-7.822 7.822s-7.822-3.502-7.822-7.822 3.502-7.822 7.822-7.822 7.822 3.502 7.822 7.822M87.271 49.73c0 4.32-3.502 7.822-7.822 7.822s-7.822-3.502-7.822-7.822 3.502-7.822 7.822-7.822 7.822 3.502 7.822 7.822"/>
        <path fill="#CD8474" d="M60.509 78.127L59.187 60.75 45.62 62.613l-2.216 25.4c4.477-.537 11.769-2.594 17.105-9.886"/>
        <path fill="#E7A594" d="M23.561 42.287c-.253 4.158-.067 5.406.392 9.549.909 8.208 4.832 15.352 12.28 19.323 7.47 3.984 17.643 5.397 25.592 2.125 6.16-2.535 10.915-7.055 13.352-13.146 2.776-6.941 2.806-15.817 2.432-23.312C76.22 9.063 53.612 9.473 53.612 9.473S23.447 7.148 23.561 42.287M43.404 88.013l-.976 11.178s.399 5.586 9.443 6.65c9.045 1.064 10.11-8.38 10.11-8.38l-1.472-19.334c-5.336 7.292-12.628 9.349-17.105 9.886"/>
        <path fill="#2F323A" d="M39.569 47.872c0 1.533-.622 2.776-1.389 2.776-.766 0-1.388-1.243-1.388-2.776 0-1.534.622-2.777 1.388-2.777.767 0 1.389 1.243 1.389 2.777M65.266 48.342c0 1.534-.621 2.776-1.388 2.776-.767 0-1.389-1.242-1.389-2.776 0-1.533.622-2.776 1.389-2.776s1.388 1.243 1.388 2.776M50.835 49.73c-.556.349-1.099.689-1.611 1.035-.485.33-1.041.788-1.06 1.119-.016.139.058.302.293.5.198.192.426.336.676.42.5.159 1.135.024 1.702-.298-.365.53-1.039.975-1.818.872-.384-.04-.728-.234-1.017-.451-.263-.182-.63-.603-.582-1.112.069-.491.369-.801.636-1.024.284-.217.573-.401.882-.533.604-.285 1.246-.451 1.899-.528M46.978 56.242c.618.412 1.26.744 1.901 1.023.648.264 1.312.45 1.977.472.664.043 1.331-.086 1.953-.374.639-.26 1.214-.686 1.825-1.121-.198.31-.416.62-.663.91-.278.254-.539.548-.889.729-.646.438-1.466.644-2.259.605-1.604-.092-3.007-1.023-3.845-2.244"/>
        <path fill="#CD7173" d="M39.714 55.334c0 1.613-1.308 2.922-2.922 2.922s-2.922-1.31-2.922-2.922c0-1.614 1.308-2.922 2.922-2.922s2.922 1.308 2.922 2.922M66.8 56.242c0 1.614-1.309 2.923-2.922 2.923-1.614 0-2.923-1.31-2.923-2.923s1.309-2.922 2.923-2.922c1.613 0 2.922 1.309 2.922 2.922"/>
        <path fill="#2F323A" d="M48.322 59.499s4.167 1.252 6.025 0c0 4.076-.269 7.885-1.502 7.563-1.233-.322-1.207-2.306-1.207-2.306s.134 3.7-1.261 3.379c-1.394-.322-1.448-4.56-1.448-4.56s0 2.629-1.609 1.985c-1.609-.643 1.002-6.061 1.002-6.061"/>
        <path fill="#FFFFFE" d="M44.567 48.752l.031-.02c.33-.228 3.36-2.161 6.727-2.152 1.799.004 3.68.524 5.41 2.128l.681-.732c-1.92-1.79-4.098-2.4-6.091-2.396-3.988.01-7.287 2.33-7.329 2.35l.571.822"/>
        <path fill="#2F323A" d="M34.181 31.656c-1.166 1.99-3.079 3.43-5.322 3.973-3.12.755-7.214.795-8.854-3.38-2.807-7.144 1.363-12.374 1.363-12.374s-9.501-7.75-2.398-13.873c7.103-6.124 11.769 1.066 11.769 1.066S31.595.54 38.18.028c6.585-.51 8.798 5.974 8.798 5.974s3.798-6.35 11.453-4.82c7.654 1.532 6.287 9.443 6.287 9.443s2.52-1.802 6.549-.946c6.511 1.383 9.577 8.663 8.182 16.063-.918 4.868.146 9.342.981 11.833.559 1.669-.315 2.983-.981 2.853-1.738-.34-2.001-17.228-8.54-16.775-.31 3.724-2.029 9.815-7.087 8.379-1.215-.345-2.247-1.176-3.044-2.156-1.305-1.602-1.937-3.647-3.383-5.142-.961-.994-2.073-1.836-3.319-2.44-2.939-1.427-6.269-1.276-9.224.03-5.226 2.313-8.625 5.843-10.671 9.332"/>
        <path fill="#2F323A" d="M59.52 41.908c.329-.967.996-1.751 1.795-2.383.808-.62 1.815-1.052 2.891-1.163 1.07-.122 2.199.095 3.101.63.477.222.844.606 1.218.935.341.374.625.797.853 1.237-.993-.255-1.805-.582-2.633-.702-.803-.178-1.569-.191-2.33-.111-1.536.144-3.062.787-4.895 1.557M42.428 41.164c-1.696-1.323-3.288-1.762-4.99-1.695-.855 0-1.741.2-2.672.357-.454.13-.942.2-1.426.317-.488.115-.98.239-1.533.294.321-.434.702-.798 1.088-1.17.41-.33.855-.63 1.312-.911.957-.48 2.014-.877 3.172-.885 1.138-.042 2.348.26 3.293.942.936.675 1.628 1.66 1.756 2.75"/>
        <path fill="#FFFFFE" d="M44.282 54.672L44.282 54.172 23.956 54.172 23.956 40.012 43.782 40.012 43.782 54.672 44.282 54.672 44.282 54.172 44.282 54.672 44.782 54.672 44.782 39.012 22.956 39.012 22.956 55.172 44.782 55.172 44.782 54.672 44.282 54.672M77.778 55.166L77.778 54.666 57.575 54.666 57.575 40.505 77.277 40.505 77.278 55.166 77.778 55.166 77.778 54.666 77.778 55.166 78.277 55.166 78.277 39.506 56.575 39.506 56.575 55.666 78.277 55.666 78.277 55.166 77.778 55.166"/>
    </g>
</svg>
